<?xml version="1.0" encoding="UTF-8"?>
<svg id="_레이어_1" data-name="레이어 1" xmlns="http://www.w3.org/2000/svg" viewBox="0 0 479.24 421.42">
  <defs>
    <style>
      .cls-1 {
        fill: none;
        stroke: #231815;
        stroke-miterlimit: 10;
        stroke-width: 30px;
      }
    </style>
  </defs>
  <path class="cls-1" d="m240.34,15C116.69,15,16.45,96.35,16.45,196.7c0,37.04,13.66,71.48,37.1,100.21,2.81,3.44,4.07,7.9,3.34,12.28-4.08,24.52-12.66,40.88-20.26,51.64-9.95,14.08-25.15,27.7-20.9,38.06.8,1.95,3.04,6.23,9.9,7.15,15.51,2.09,54.53-4.75,79.09-17.16,10.19-5.15,23.39-12.51,38.14-22.73,3.39-2.35,7.7-2.92,11.61-1.6,26.44,8.92,55.44,13.84,85.86,13.84,123.65,0,223.89-81.35,223.89-181.7S364,15,240.34,15Z"/>
</svg>